<svg width="32" height="32" viewBox="0 0 32 32" fill="none" xmlns="http://www.w3.org/2000/svg">
<path fill-rule="evenodd" clip-rule="evenodd" d="M2.6665 15.9998C2.6665 8.64784 8.64784 2.6665 15.9998 2.6665C23.3518 2.6665 29.3332 8.64784 29.3332 15.9998C29.3332 23.3518 23.3518 29.3332 15.9998 29.3332C8.64784 29.3332 2.6665 23.3518 2.6665 15.9998ZM15.9998 26.6665C10.1185 26.6665 5.33317 21.8812 5.33317 15.9998C5.33317 10.1185 10.1185 5.33317 15.9998 5.33317C21.8812 5.33317 26.6665 10.1185 26.6665 15.9998C26.6665 21.8812 21.8812 26.6665 15.9998 26.6665ZM15.9998 9.33317C12.3238 9.33317 9.33317 12.3238 9.33317 15.9998C9.33317 19.6758 12.3238 22.6665 15.9998 22.6665C19.6758 22.6665 22.6665 19.6758 22.6665 15.9998C22.6665 12.3238 19.6758 9.33317 15.9998 9.33317Z" fill="#979797"/>
<mask id="mask0_180_7346" style="mask-type:alpha" maskUnits="userSpaceOnUse" x="2" y="2" width="28" height="28">
<path fill-rule="evenodd" clip-rule="evenodd" d="M2.6665 15.9998C2.6665 8.64784 8.64784 2.6665 15.9998 2.6665C23.3518 2.6665 29.3332 8.64784 29.3332 15.9998C29.3332 23.3518 23.3518 29.3332 15.9998 29.3332C8.64784 29.3332 2.6665 23.3518 2.6665 15.9998ZM15.9998 26.6665C10.1185 26.6665 5.33317 21.8812 5.33317 15.9998C5.33317 10.1185 10.1185 5.33317 15.9998 5.33317C21.8812 5.33317 26.6665 10.1185 26.6665 15.9998C26.6665 21.8812 21.8812 26.6665 15.9998 26.6665ZM15.9998 9.33317C12.3238 9.33317 9.33317 12.3238 9.33317 15.9998C9.33317 19.6758 12.3238 22.6665 15.9998 22.6665C19.6758 22.6665 22.6665 19.6758 22.6665 15.9998C22.6665 12.3238 19.6758 9.33317 15.9998 9.33317Z" fill="white"/>
</mask>
<g mask="url(#mask0_180_7346)">
</g>
</svg>
