<svg width="24" height="24" viewBox="0 0 24 24" fill="none" xmlns="http://www.w3.org/2000/svg">
<path fill-rule="evenodd" clip-rule="evenodd" d="M10.3325 9.49955L10.3325 2.83355C10.3325 2.37355 9.96051 1.99955 9.49951 1.99955C5.36451 1.99955 1.99951 5.36455 1.99951 9.49955C1.99951 9.95955 2.37251 10.3336 2.83251 10.3336L9.49951 10.3336C9.96051 10.3336 10.3325 9.95955 10.3325 9.49955ZM3.72651 8.66655C4.09251 6.11555 6.11551 4.09255 8.66651 3.72655V8.66655L3.72651 8.66655ZM11.9775 11.0656L11.9775 2.91655C11.9775 2.37455 12.4495 1.95055 12.9885 2.00455C18.4145 2.54855 22.5665 7.42055 21.9365 13.1186C21.4305 17.7036 17.7035 21.4306 13.1185 21.9376C7.42051 22.5656 2.54751 18.4156 2.00451 12.9886C1.95051 12.4486 2.37351 11.9776 2.91551 11.9776L11.0665 11.9776C11.5695 11.9776 11.9775 11.5696 11.9775 11.0656Z" fill="#6481DC"/>
<mask id="mask0_180_7048" style="mask-type:alpha" maskUnits="userSpaceOnUse" x="1" y="1" width="21" height="22">
<path fill-rule="evenodd" clip-rule="evenodd" d="M10.3325 9.49955L10.3325 2.83355C10.3325 2.37355 9.96051 1.99955 9.49951 1.99955C5.36451 1.99955 1.99951 5.36455 1.99951 9.49955C1.99951 9.95955 2.37251 10.3336 2.83251 10.3336L9.49951 10.3336C9.96051 10.3336 10.3325 9.95955 10.3325 9.49955ZM3.72651 8.66655C4.09251 6.11555 6.11551 4.09255 8.66651 3.72655V8.66655L3.72651 8.66655ZM11.9775 11.0656L11.9775 2.91655C11.9775 2.37455 12.4495 1.95055 12.9885 2.00455C18.4145 2.54855 22.5665 7.42055 21.9365 13.1186C21.4305 17.7036 17.7035 21.4306 13.1185 21.9376C7.42051 22.5656 2.54751 18.4156 2.00451 12.9886C1.95051 12.4486 2.37351 11.9776 2.91551 11.9776L11.0665 11.9776C11.5695 11.9776 11.9775 11.5696 11.9775 11.0656Z" fill="white"/>
</mask>
<g mask="url(#mask0_180_7048)">
</g>
</svg>
