<svg width="16" height="18" viewBox="0 0 16 18" fill="none" xmlns="http://www.w3.org/2000/svg">
<path d="M7.20221 13.607L13.7687 4.9779C14.0897 4.5561 14.0068 3.9525 13.5842 3.6322L11.2228 1.8435C10.8001 1.5233 10.195 1.6059 9.87421 2.0277L3.30731 10.6564L7.20221 13.607ZM1.89081 10.3007C1.90701 10.271 1.92561 10.2422 1.94671 10.2146L8.79741 1.212C9.56911 0.197901 11.0241 -0.000799328 12.0403 0.769201L14.4019 2.5579C15.4183 3.3279 15.6174 4.7794 14.8456 5.7933L7.96451 14.8357C7.94841 14.8567 7.93131 14.8767 7.91331 14.8955C7.83885 15.0209 7.72582 15.1189 7.59111 15.1748L1.61961 17.6487C1.50854 17.6947 1.38723 17.7103 1.26813 17.6939C1.14904 17.6776 1.03644 17.6298 0.941913 17.5555C0.847518 17.4813 0.77467 17.3832 0.730909 17.2714C0.687148 17.1596 0.674064 17.0382 0.693012 16.9196L1.69301 10.6795C1.716 10.5351 1.78544 10.4021 1.89081 10.3007ZM2.84971 12.0032L2.21891 15.9398L5.98611 14.379L2.84971 12.0032Z" fill="#121211"/>
</svg>
